<?xml version="1.0" standalone="no"?>
<!DOCTYPE svg PUBLIC "-//W3C//DTD SVG 20010904//EN"
 "http://www.w3.org/TR/2001/REC-SVG-20010904/DTD/svg10.dtd">
<svg version="1.0" xmlns="http://www.w3.org/2000/svg"
 width="700.000000pt" height="700.000000pt" viewBox="0 0 700.000000 700.000000"
 preserveAspectRatio="xMidYMid meet">
<metadata>
Created by potrace 1.11, written by Peter Selinger 2001-2013
</metadata>
<g transform="translate(0.000000,700.000000) scale(0.100000,-0.100000)"
fill="#000000" stroke="none">
<path d="M1014 6286 c-105 -19 -209 -120 -233 -226 -6 -25 -11 -99 -11 -165
l-1 -120 -40 -25 c-50 -31 -96 -91 -110 -145 -6 -22 -11 -72 -12 -111 0 -83
17 -117 69 -134 l34 -12 0 -133 0 -133 -34 -12 c-61 -20 -69 -45 -69 -212 0
-81 -3 -148 -6 -149 -3 -1 -103 -2 -221 -3 -234 -3 -261 -8 -315 -62 -15 -15
-36 -46 -46 -68 -18 -39 -19 -82 -19 -787 0 -816 -1 -800 58 -863 56 -59 86
-65 329 -66 l220 -1 0 -425 c0 -233 -3 -424 -6 -425 -3 0 -29 -2 -56 -4 -28
-2 -62 -8 -76 -13 -40 -16 -88 -61 -111 -106 -20 -38 -22 -56 -22 -221 0 -152
3 -186 18 -217 24 -50 86 -105 133 -117 21 -5 155 -9 298 -9 l259 1 41 -79
c50 -99 90 -157 161 -234 232 -250 600 -359 931 -274 277 70 511 265 636 529
l28 60 802 -2 c441 -1 813 -2 827 -2 21 -1 31 -12 58 -67 51 -104 95 -167 172
-247 149 -158 344 -259 565 -293 34 -5 218 -5 255 0 140 21 311 89 427 172
130 93 261 251 315 382 18 43 26 52 47 53 14 0 141 1 281 2 l255 2 48 28 c26
16 60 47 75 70 l27 42 0 195 c0 171 -2 199 -18 229 -39 70 -105 111 -187 116
-25 2 -48 4 -52 4 -4 1 -9 385 -10 854 l-3 852 -24 45 c-26 49 -77 102 -118
124 -47 24 -103 27 -543 29 l-425 2 -123 310 c-68 171 -168 425 -223 565 -55
140 -106 269 -113 285 -8 17 -62 155 -122 308 -116 296 -141 340 -214 377
l-37 19 0 123 c1 166 -17 223 -93 299 -101 102 86 93 -1896 93 -975 1 -1752
-3 -1780 -8z m576 -343 l0 -148 -303 0 c-293 0 -302 1 -308 20 -11 37 -2 196
12 222 26 48 53 52 337 53 l262 0 0 -147z m2166 10 c-1 -76 -4 -142 -8 -148
-4 -7 -339 -10 -974 -10 -899 0 -968 2 -973 17 -5 14 -6 206 -2 266 1 9 204
12 979 12 l979 0 -1 -137z m774 115 c41 -28 49 -55 48 -173 0 -78 -3 -94 -17
-97 -9 -2 -146 -3 -306 -3 l-290 0 -2 148 -2 147 268 0 c261 0 269 -1 301 -22z"/>
</g>
</svg>
