<?xml version="1.0"?>
<svg xmlns="http://www.w3.org/2000/svg" xmlns:xlink="http://www.w3.org/1999/xlink" xmlns:svgjs="http://svgjs.com/svgjs" version="1.1" width="512" height="512" x="0" y="0" viewBox="0 0 511.46 511.46" style="enable-background:new 0 0 512 512" xml:space="preserve" class=""><g><g xmlns="http://www.w3.org/2000/svg"><g><g><g><g><g><path d="m69.557 295.097h-54.052c-4.418 0-8-3.582-8-8v-103.937c0-4.418 3.582-8 8-8h54.052z" fill="#8d9ca8" data-original="#8d9ca8" style=""/></g></g></g></g><g><g><g><g><path d="m37.505 295.094h-22c-4.42 0-8-3.58-8-8v-103.93c0-4.42 3.58-8 8-8h22c-4.42 0-8 3.58-8 8v103.93c0 4.42 3.58 8 8 8z" fill="#7a8c98" data-original="#7a8c98" style=""/></g></g></g></g><g><g><g><g><path d="m484.145 245.154v144.72h-432.32v-282.4c0-6.63 5.37-12 12-12h278.17c5.22 0 9.84 2.73 11.43 6.75l49.77 125.87c1.21 3.05 4.16 5.06 7.44 5.06h61.51c6.63 0 12 5.37 12 12z" fill="#ffc107" data-original="#ade194" style="" class=""/></g></g></g></g><g><g><g><g><path d="m85.825 95.474c-6.63 0-12 5.37-12 12v282.4h-22v-282.4c0-6.63 5.37-12 12-12z" fill="#ffc107" data-original="#97da7b" style="" class=""/></g></g></g></g><g><g><g><g><path d="m495.96 407.371h-455.948c-4.418 0-8-3.582-8-8v-19c0-4.418 3.582-8 8-8h455.948c4.418 0 8 3.582 8 8v19c0 4.418-3.582 8-8 8z" fill="#d8ecfe" data-original="#d8ecfe" style="" class=""/></g></g></g></g><g><g><g><g><path d="m62.015 407.374h-22c-4.42 0-8-3.58-8-8v-19c0-4.42 3.58-8 8-8h22c-4.42 0-8 3.58-8 8v19c0 4.42 3.58 8 8 8z" fill="#c4e2ff" data-original="#c4e2ff" style=""/></g></g></g></g><g><g><g><g><circle cx="142.012" cy="389.871" fill="#8d9ca8" r="62.5" data-original="#8d9ca8" style=""/></g></g></g></g><g><g><g><g><circle cx="142.012" cy="389.871" fill="#c4e2ff" r="20" data-original="#c4e2ff" style=""/></g></g></g></g><g><g><g><g><circle cx="393.96" cy="389.871" fill="#8d9ca8" r="62.5" data-original="#8d9ca8" style=""/></g></g></g></g><g><g><g><g><path d="m153.015 451.404c-3.57.64-7.25.97-11 .97-34.52 0-62.5-27.98-62.5-62.5s27.98-62.5 62.5-62.5c3.75 0 7.43.33 11 .97-29.28 5.19-51.5 30.76-51.5 61.53s22.22 56.34 51.5 61.53z" fill="#7a8c98" data-original="#7a8c98" style=""/></g></g></g></g><g><g><g><g><path d="m404.965 451.404c-3.57.64-7.25.97-11 .97-34.52 0-62.5-27.98-62.5-62.5s27.98-62.5 62.5-62.5c3.75 0 7.43.33 11 .97-29.28 5.19-51.5 30.76-51.5 61.53s22.22 56.34 51.5 61.53z" fill="#7a8c98" data-original="#7a8c98" style=""/></g></g></g></g><g><g><g><g><circle cx="393.96" cy="389.871" fill="#c4e2ff" r="20" data-original="#c4e2ff" style=""/></g></g></g></g><g><g><g><g><path d="m484.145 262.054v35h-38.81c-4.42 0-8-3.58-8-8v-19c0-4.42 3.58-8 8-8z" fill="#d8ecfe" data-original="#d8ecfe" style="" class=""/></g></g></g></g><g><g><g><g><path d="m86.825 138.474v88.476c0 4.435 3.608 8.024 8.044 8l96.899-.528c4.401-.024 7.956-3.599 7.956-8v-87.948c0-4.418-3.582-8-8-8h-96.899c-4.418 0-8 3.581-8 8z" fill="#99e6fc" data-original="#99e6fc" style=""/></g></g></g></g><g><g><g><g><path d="m321.525 130.474h-78.801c-4.418 0-8 3.582-8 8v87.671c0 4.435 3.608 8.024 8.044 8l113.212-.617c5.627-.031 9.465-5.708 7.396-10.941l-34.411-87.054c-1.207-3.053-4.157-5.059-7.44-5.059z" fill="#99e6fc" data-original="#99e6fc" style=""/></g></g></g></g><g><g><g><g><path d="m115.475 234.844-20.61.11c-4.43.02-8.04-3.57-8.04-8v-88.48c0-4.42 3.58-8 8-8h22c-4.42 0-8 3.58-8 8v88.48c0 3.96 2.88 7.25 6.65 7.89z" fill="#62dbfb" data-original="#62dbfb" style="" class=""/></g></g></g></g><g><g><g><g><path d="m263.375 234.034-20.61.11c-4.43.02-8.04-3.56-8.04-8v-87.67c0-4.42 3.58-8 8-8h22c-4.42 0-8 3.58-8 8v87.67c0 3.97 2.88 7.25 6.65 7.89z" fill="#62dbfb" data-original="#62dbfb" style="" class=""/></g></g></g></g></g><g><path d="m495.96 364.876h-4.32v-119.72c0-10.752-8.748-19.5-19.5-19.5h-61.51c-.203 0-.391-.131-.465-.318l-49.77-125.871c-1.856-4.692-5.893-8.33-10.905-10.169v-15.212c0-12.407-10.093-22.5-22.5-22.5h-248.17c-12.407 0-22.5 10.093-22.5 22.5v15.394c-7.04 2.945-12 9.9-12 17.996v5.5c0 4.142 3.358 7.5 7.5 7.5s7.5-3.358 7.5-7.5v-5.5c0-2.481 2.019-4.5 4.5-4.5h278.17c2.498 0 4.136 1.198 4.456 2.008l49.773 125.878c2.36 5.95 8.017 9.794 14.412 9.794h61.51c2.481 0 4.5 2.019 4.5 4.5v9.4h-31.31c-8.547 0-15.5 6.953-15.5 15.5v19c0 8.547 6.953 15.5 15.5 15.5h31.31v60.32h-17.316c-10.086-26.286-35.576-45.003-65.369-45.003s-55.282 18.717-65.369 45.003h-29.097c-4.142 0-7.5 3.358-7.5 7.5s3.358 7.5 7.5 7.5h25.191c-.469 3.267-.725 6.602-.725 9.997 0 3.397.256 6.734.726 10.003h-113.4c.47-3.269.726-6.606.726-10.003 0-3.395-.256-6.73-.725-9.997h53.208c4.142 0 7.5-3.358 7.5-7.5s-3.358-7.5-7.5-7.5h-57.114c-10.086-26.286-35.576-45.003-65.369-45.003s-55.282 18.717-65.369 45.003h-17.319v-216.9c0-4.142-3.358-7.5-7.5-7.5s-7.5 3.358-7.5 7.5v19.69h-28.82c-8.547 0-15.5 6.953-15.5 15.5v103.93c0 8.547 6.953 15.5 15.5 15.5h28.82v62.28h-4.31c-8.547 0-15.5 6.953-15.5 15.5v19c0 8.547 6.953 15.5 15.5 15.5h36.631c10.088 26.283 35.576 44.997 65.367 44.997s55.278-18.714 65.367-44.997h121.215c10.088 26.283 35.576 44.997 65.367 44.997s55.278-18.714 65.367-44.997h36.638c8.547 0 15.5-6.953 15.5-15.5v-19c-.002-8.546-6.955-15.5-15.502-15.5zm-161.47-290.79v13.89h-45v-21.39h37.5c4.135 0 7.5 3.365 7.5 7.5zm-60 13.89h-143.17v-21.39h143.17zm-195.67-21.39h37.5v21.39h-45v-13.89c0-4.135 3.364-7.5 7.5-7.5zm366.51 222.97c-.276 0-.5-.224-.5-.5v-19c0-.276.224-.5.5-.5h31.31v20zm-429.83-1.96c-.276 0-.5-.224-.5-.5v-103.93c0-.276.224-.5.5-.5h28.82v104.93zm24.51 112.28c-.276 0-.5-.224-.5-.5v-19c0-.276.224-.5.5-.5h32.723c-.469 3.267-.725 6.602-.725 9.997 0 3.397.256 6.734.726 10.003zm101.997 44.998c-30.327 0-55-24.673-55-55s24.673-55 55-55 55 24.673 55 55-24.673 55-55 55zm251.948 0c-30.327 0-55-24.673-55-55s24.673-55 55-55 55 24.673 55 55-24.673 55-55 55zm102.505-45.498c0 .271-.229.5-.5.5h-32.731c.47-3.269.726-6.606.726-10.003 0-3.395-.256-6.73-.725-9.997h32.73c.271 0 .5.229.5.5z" fill="#000000" data-original="#000000" style="" class=""/><path d="m142.007 362.374c-15.164 0-27.5 12.336-27.5 27.5s12.336 27.5 27.5 27.5 27.5-12.336 27.5-27.5-12.336-27.5-27.5-27.5zm0 40c-6.893 0-12.5-5.607-12.5-12.5s5.607-12.5 12.5-12.5 12.5 5.607 12.5 12.5-5.607 12.5-12.5 12.5z" fill="#000000" data-original="#000000" style="" class=""/><path d="m393.955 362.374c-15.164 0-27.5 12.336-27.5 27.5s12.336 27.5 27.5 27.5 27.5-12.336 27.5-27.5-12.336-27.5-27.5-27.5zm0 40c-6.893 0-12.5-5.607-12.5-12.5s5.607-12.5 12.5-12.5 12.5 5.607 12.5 12.5-5.607 12.5-12.5 12.5z" fill="#000000" data-original="#000000" style="" class=""/><path d="m90.81 253.96c-4.142 0-7.5 3.358-7.5 7.5s3.358 7.5 7.5 7.5h26.697c4.142 0 7.5-3.358 7.5-7.5s-3.358-7.5-7.5-7.5z" fill="#000000" data-original="#000000" style="" class=""/><path d="m234.719 268.96h26.697c4.142 0 7.5-3.358 7.5-7.5s-3.358-7.5-7.5-7.5h-26.697c-4.142 0-7.5 3.358-7.5 7.5s3.358 7.5 7.5 7.5z" fill="#000000" data-original="#000000" style="" class=""/><path d="m207.219 226.425v-87.949c0-8.547-6.953-15.5-15.5-15.5h-96.899c-8.547 0-15.5 6.953-15.5 15.5v88.477c0 4.156 1.623 8.059 4.569 10.99 2.927 2.911 6.805 4.51 10.929 4.51h.086l96.899-.528c8.501-.048 15.416-7.001 15.416-15.5zm-112.396 1.028c-.057 0-.208.001-.356-.146-.147-.147-.147-.303-.147-.354v-88.477c0-.276.224-.5.5-.5h96.899c.276 0 .5.224.5.5v87.949c0 .274-.224.499-.498.5z" fill="#000000" data-original="#000000" style="" class=""/><path d="m242.715 241.646h.088l113.211-.617c5.12-.028 9.889-2.577 12.757-6.818 2.868-4.242 3.456-9.617 1.574-14.379l-34.411-87.054c-2.354-5.955-8.012-9.803-14.415-9.803h-78.801c-8.547 0-15.5 6.953-15.5 15.5v87.671c0 4.156 1.623 8.059 4.57 10.99 2.927 2.911 6.804 4.51 10.927 4.51zm-.496-103.17c0-.276.224-.5.5-.5h78.801c.207 0 .389.124.465.316l34.411 87.054c.034.086.097.246-.051.464-.147.218-.319.219-.412.22l-113.212.617c-.056-.007-.208 0-.354-.145-.147-.147-.147-.303-.147-.354v-87.672z" fill="#000000" data-original="#000000" style="" class=""/></g></g></g></svg>
